HIERARCHY
ROOT Hips
{
	OFFSET -0.001795 -0.223333 0.028219
	CHANNELS 6 Xposition Yposition Zposition Zrotation Yrotation Xrotation 
	JOINT LeftUpLeg
	{
		OFFSET 0.069520 -0.091406 -0.006815
		CHANNELS 3 Zrotation Yrotation Xrotation
		JOINT LeftLeg
		{
			OFFSET 0.034277 -0.375199 -0.004496
			CHANNELS 3 Zrotation Yrotation Xrotation
			JOINT LeftFoot
			{
				OFFSET -0.013596 -0.397961 -0.043693
				CHANNELS 3 Zrotation Yrotation Xrotation
				JOINT LeftToe
				{
					OFFSET 0.026358 -0.055791 0.119288
					CHANNELS 3 Zrotation Yrotation Xrotation
					End Site
					{
						OFFSET 0.000000 0.000000 0.000000
					}
				}
			}
		}
	}
	JOINT RightUpLeg
	{
		OFFSET -0.067670 -0.090522 -0.004320
		CHANNELS 3 Zrotation Yrotation Xrotation
		JOINT RightLeg
		{
			OFFSET -0.038290 -0.382569 -0.008850
			CHANNELS 3 Zrotation Yrotation Xrotation
			JOINT RightFoot
			{
				OFFSET 0.015774 -0.398415 -0.042312
				CHANNELS 3 Zrotation Yrotation Xrotation
				JOINT RightToe
				{
					OFFSET -0.025372 -0.048144 0.123348
					CHANNELS 3 Zrotation Yrotation Xrotation
					End Site
					{
						OFFSET 0.000000 0.000000 0.000000
					}
				}
			}
		}
	}
	JOINT Spine
	{
		OFFSET -0.002533 0.108963 -0.026696
		CHANNELS 3 Zrotation Yrotation Xrotation
		JOINT Spine1
		{
			OFFSET 0.005487 0.135180 0.001092
			CHANNELS 3 Zrotation Yrotation Xrotation
			JOINT Spine2
			{
				OFFSET 0.001457 0.052922 0.025425
				CHANNELS 3 Zrotation Yrotation Xrotation
				JOINT Neck
				{
					OFFSET -0.002778 0.213870 -0.042857
					CHANNELS 3 Zrotation Yrotation Xrotation
					JOINT Head
					{
						OFFSET 0.005152 0.064970 0.051349
						CHANNELS 3 Zrotation Yrotation Xrotation
						End Site
						{
							OFFSET 0.000000 0.000000 0.000000
						}
					}
				}
				JOINT LeftShoulder
				{
					OFFSET 0.078845 0.121749 -0.034090
					CHANNELS 3 Zrotation Yrotation Xrotation
					JOINT LeftArm
					{
						OFFSET 0.090977 0.030469 -0.008868
						CHANNELS 3 Zrotation Yrotation Xrotation
						JOINT LeftForeArm
						{
							OFFSET 0.259612 -0.012772 -0.027456
							CHANNELS 3 Zrotation Yrotation Xrotation
							JOINT LeftHand
							{
								OFFSET 0.249234 0.008986 -0.001171
								CHANNELS 3 Zrotation Yrotation Xrotation
								End Site
								{
									OFFSET 0.000000 0.000000 0.000000
								}
							}
						}
					}
				}
				JOINT RightShoulder
				{
					OFFSET -0.081759 0.118833 -0.038615
					CHANNELS 3 Zrotation Yrotation Xrotation
					JOINT RightArm
					{
						OFFSET -0.096012 0.032551 -0.009143
						CHANNELS 3 Zrotation Yrotation Xrotation
						JOINT RightForeArm
						{
							OFFSET -0.253742 -0.013329 -0.021401
							CHANNELS 3 Zrotation Yrotation Xrotation
							JOINT RightHand
							{
								OFFSET -0.255298 0.007772 -0.005559
								CHANNELS 3 Zrotation Yrotation Xrotation
								End Site
								{
									OFFSET 0.000000 0.000000 0.000000
								}
							}
						}
					}
				}
			}
		}
	}
}
MOTION
Frames: 10
Frame Time: 0.050000
0.000000 0.779447 0.000000 -8.637602 -3.753195 12.578682 18.913080 3.752463 -42.121221 -13.615919 10.180289 63.705380 12.101307 28.043014 -20.526236 0.000000 0.000000 0.000000 -23.324866 -3.693059 -55.818463 20.858381 -6.521830 29.747895 -12.213386 -28.436848 11.516057 0.000000 0.000000 0.000000 -4.331153 1.306957 61.994935 -0.775199 0.668719 -22.286994 -4.034326 6.161281 19.481478 16.550070 -10.831178 -11.353892 0.000000 0.000000 0.000000 -12.907066 -38.054527 17.161135 -21.868640 -34.184309 1.395026 27.551598 -46.992453 -10.171936 0.000000 0.000000 0.000000 27.202310 21.130044 14.526309 40.230868 31.709281 4.041838 -22.290579 59.728457 -7.954421 0.000000 0.000000 0.000000 
-0.017869 0.758589 0.028357 -8.748734 -3.261216 12.521573 20.694195 4.395442 -42.534712 -12.415301 10.346887 70.975219 11.377189 25.263651 -19.788590 0.000000 0.000000 0.000000 -25.331913 -5.077099 -58.082280 21.379305 -6.288048 26.536611 -9.583429 -23.275441 17.601820 0.000000 0.000000 0.000000 -3.344905 0.495022 62.235677 1.633146 0.326359 -27.933730 -6.427380 8.442626 26.128654 21.364045 -13.099033 -16.615518 0.000000 0.000000 0.000000 -13.226367 -38.740237 17.078943 -20.856429 -34.411656 0.807049 25.901259 -50.675626 -10.477189 0.000000 0.000000 0.000000 31.098268 20.790951 16.226994 37.322767 31.800676 2.588683 -21.560748 60.866964 -7.579491 0.000000 0.000000 0.000000 
-0.039477 0.739918 0.057779 -7.594962 -1.945739 11.579240 21.476714 4.081527 -40.663495 -11.506111 9.271830 73.053149 11.939714 27.800277 -23.046687 0.000000 0.000000 0.000000 -24.936571 -5.653739 -59.200076 22.341349 -8.118393 34.007677 -9.328553 -22.856499 12.358542 0.000000 0.000000 0.000000 -1.456738 -1.250464 62.429400 1.482087 0.345770 -27.403156 -7.280746 6.787436 26.749638 19.149797 -10.518292 -20.337287 0.000000 0.000000 0.000000 -16.234334 -38.815081 18.258771 -18.413557 -33.761204 0.337274 27.573532 -48.479577 -10.675234 0.000000 0.000000 0.000000 27.422645 20.058225 14.164456 40.466415 33.778621 4.035229 -17.189819 59.109856 -4.870965 0.000000 0.000000 0.000000 
-0.063893 0.726315 0.084953 -8.029947 -2.125343 11.439517 22.866937 4.211783 -37.943173 -9.418836 7.786678 75.221708 11.649013 26.964617 -24.008603 0.000000 0.000000 0.000000 -26.300642 -6.819068 -62.675211 26.598611 -11.466641 40.054820 -9.910164 -23.564685 15.484331 0.000000 0.000000 0.000000 0.819784 -2.725679 63.515291 -1.695083 0.924796 -27.032791 -7.329129 4.167200 27.624494 17.162867 -9.612487 -20.073672 0.000000 0.000000 0.000000 -14.099781 -38.510191 18.025980 -20.477353 -35.093162 0.788542 31.766826 -46.777005 -11.881190 0.000000 0.000000 0.000000 27.104936 20.895431 13.565367 41.515032 35.587813 5.084622 -20.197766 58.545817 -6.710336 0.000000 0.000000 0.000000 
-0.089059 0.721065 0.109217 -8.029513 -3.327182 12.132135 24.616936 4.358753 -33.815787 -8.743206 7.614589 73.104441 11.340464 26.974329 -27.831378 0.000000 0.000000 0.000000 -25.690847 -6.284696 -65.442902 28.391000 -13.478627 44.702337 -10.528351 -24.847007 13.893695 0.000000 0.000000 0.000000 1.565716 -2.717304 62.722184 -1.974878 0.934431 -24.071730 -6.977791 4.208822 25.564772 15.395351 -8.879325 -17.498418 0.000000 0.000000 0.000000 -14.036937 -39.020535 18.359641 -21.092106 -34.182251 0.946186 35.323222 -45.607730 -13.073454 0.000000 0.000000 0.000000 26.224184 21.646754 13.765594 41.495571 37.289740 5.992360 -21.144140 58.445294 -7.285386 0.000000 0.000000 0.000000 
-0.113853 0.723051 0.130991 -7.630301 -2.621159 14.203371 25.259215 3.835401 -30.935200 -7.820987 6.344165 69.614237 11.178798 26.742059 -27.606144 0.000000 0.000000 0.000000 -25.467848 -6.541578 -66.519033 28.648915 -14.631616 47.649772 -10.288741 -24.844345 9.559377 0.000000 0.000000 0.000000 2.565451 -3.535289 61.803690 -1.989923 0.956553 -24.677456 -6.052030 2.442112 27.378575 12.409944 -6.565875 -19.723878 0.000000 0.000000 0.000000 -12.414596 -37.560602 17.644125 -22.504197 -35.406085 1.207376 32.281776 -43.489920 -10.899899 0.000000 0.000000 0.000000 24.866773 23.453820 14.045543 41.987729 39.637948 7.025812 -21.890710 57.426882 -7.667959 0.000000 0.000000 0.000000 
-0.138718 0.732119 0.152319 -7.107931 -3.391452 15.578778 24.608869 3.366944 -28.588080 -6.118680 4.987465 66.220290 11.533962 27.350775 -23.302601 0.000000 0.000000 0.000000 -24.230332 -5.379808 -66.484302 28.247195 -14.643871 49.015261 -10.338352 -25.467178 6.309776 0.000000 0.000000 0.000000 2.597338 -3.243280 61.152333 -0.693807 0.663529 -24.374549 -6.770278 2.910556 27.101888 12.242249 -5.988732 -21.364900 0.000000 0.000000 0.000000 -10.768809 -35.403759 16.071455 -27.045463 -34.481085 1.916785 28.350918 -42.966016 -9.113183 0.000000 0.000000 0.000000 25.317754 23.986521 14.616666 43.462050 42.155094 8.499398 -21.974259 56.726195 -7.461290 0.000000 0.000000 0.000000 
-0.162698 0.747891 0.175611 -7.113959 -3.868889 17.523000 23.816146 3.244229 -28.981968 -4.000337 3.490724 65.026486 11.585947 26.266323 -17.022213 0.000000 0.000000 0.000000 -22.110023 -3.801193 -66.170670 27.306701 -13.954317 49.054062 -10.432000 -26.225817 3.734030 0.000000 0.000000 0.000000 4.101532 -3.904247 58.713902 -2.374435 0.989286 -22.882586 -5.851668 1.275861 26.476937 10.902250 -5.458820 -20.735825 0.000000 0.000000 0.000000 -11.879305 -33.872008 16.212508 -30.210777 -31.353706 1.814132 21.653700 -40.458540 -5.946486 0.000000 0.000000 0.000000 26.556596 24.470534 14.516620 44.747139 43.476626 9.647140 -16.771742 53.340080 -4.594415 0.000000 0.000000 0.000000 
-0.183528 0.769006 0.202807 -7.139344 -5.135579 17.644395 24.447573 3.757216 -29.608784 -1.978955 2.509814 67.883907 9.332457 19.320042 -4.751198 0.000000 0.000000 0.000000 -19.117054 -1.477248 -64.983858 24.978928 -12.454226 50.336605 -9.513433 -24.416864 3.107594 0.000000 0.000000 0.000000 5.460395 -4.161035 55.992547 -3.265694 1.171243 -22.264285 -5.775964 1.771650 27.642975 10.314734 -5.024852 -21.435148 0.000000 0.000000 0.000000 -12.132548 -32.324759 15.524519 -35.387678 -29.225900 1.954930 17.384346 -36.696830 -3.906281 0.000000 0.000000 0.000000 25.930083 24.518120 14.339951 47.131100 44.265080 10.750173 -9.965787 50.284348 -1.262564 0.000000 0.000000 0.000000 
-0.199345 0.789678 0.234431 -5.850243 -4.687083 15.725410 23.344799 3.969811 -33.114065 0.492225 -0.008065 74.404002 4.204343 10.231757 6.085732 0.000000 0.000000 0.000000 -17.608059 -0.833507 -60.136437 22.601301 -10.904226 50.344522 -8.366176 -21.706184 2.073447 0.000000 0.000000 0.000000 6.022040 -4.614581 55.451042 -4.485536 1.497440 -20.954095 -5.237748 1.356708 25.573440 9.412741 -4.730810 -19.775695 0.000000 0.000000 0.000000 -18.395226 -33.202128 17.798753 -33.410835 -23.404622 0.376541 13.204516 -33.616208 -2.496802 0.000000 0.000000 0.000000 27.190498 23.859360 14.001928 48.135056 43.444868 10.989057 -4.652218 46.376168 0.836196 0.000000 0.000000 0.000000 
